<svg width="800" height="50" xmlns="http://www.w3.org/2000/svg">
 <g>
  <title>Base16 Dracula</title>
  <line id="base00" x1="025" y1="0" x2="025" y2="720" stroke-width="50" stroke="#282936" />
  <line id="base01" x1="075" y1="0" x2="075" y2="720" stroke-width="50" stroke="#3a3c4e" />
  <line id="base02" x1="125" y1="0" x2="125" y2="720" stroke-width="50" stroke="#4d4f68" />
  <line id="base03" x1="175" y1="0" x2="175" y2="720" stroke-width="50" stroke="#626483" />
  <line id="base04" x1="225" y1="0" x2="225" y2="720" stroke-width="50" stroke="#7c7fa7" />
  <line id="base05" x1="275" y1="0" x2="275" y2="720" stroke-width="50" stroke="#e9e9f4" />
  <line id="base06" x1="325" y1="0" x2="325" y2="720" stroke-width="50" stroke="#f1f2f8" />
  <line id="base07" x1="375" y1="0" x2="375" y2="720" stroke-width="50" stroke="#f7f7fb" />
  <line id="base08" x1="425" y1="0" x2="425" y2="720" stroke-width="50" stroke="#ea51b2" />
  <line id="base09" x1="475" y1="0" x2="475" y2="720" stroke-width="50" stroke="#b45bcf" />
  <line id="base0A" x1="525" y1="0" x2="525" y2="720" stroke-width="50" stroke="#00f769" />
  <line id="base0B" x1="575" y1="0" x2="575" y2="720" stroke-width="50" stroke="#ebff87" />
  <line id="base0C" x1="625" y1="0" x2="625" y2="720" stroke-width="50" stroke="#a1efe4" />
  <line id="base0D" x1="675" y1="0" x2="675" y2="720" stroke-width="50" stroke="#62d6e8" />
  <line id="base0E" x1="725" y1="0" x2="725" y2="720" stroke-width="50" stroke="#b45bcf" />
  <line id="base0F" x1="775" y1="0" x2="775" y2="720" stroke-width="50" stroke="#00f769" />
 </g>
</svg>
